{"title":"Oz.the.Great.and.Powerful.2013.480p.BRRip.XviD.AC3-PTpOWeR","uid":8501505,"size":1984110251,"categoryP":"video","categoryS":"movies","magnet":"?xt=urn:btih:7681f99859959a5e4c1c64543ad2218f7f470180&amp;dn=Oz.the.Great.and.Powerful.2013.480p.BRRip.XviD.AC3-PTpOWeR&amp;tr=udp%3A%2F%2Ftracker.openbittorrent.com%3A80&amp;tr=udp%3A%2F%2Fopen.demonii.com%3A1337&amp;tr=udp%3A%2F%2Ftracker.coppersurfer.tk%3A6969&amp;tr=udp%3A%2F%2Fexodus.desync.com%3A6969","seeders":4,"leechers":0,"uploader":"xxxlavalxxx","files":3,"time":1369268672,"description":"\n &lt;a href=&quot;\nhttp://www.imdb.com/title/tt1623205/&quot; rel=&quot;nofollow&quot; target=&quot;_NEW&quot;&gt;\nhttp://www.imdb.com/title/tt1623205/&lt;/a&gt;\n\n\n\nA small-time magician arrives in an enchanted land and is forced to decide if he will be a good man or a great one. \n\n\n\nDirector:\n Sam Raimi\n\nWriters:\n Mitchell Kapner (screenplay), David Lindsay-Abaire (screenplay)\n\n James Franco, Michelle Williams, Rachel Weisz\n\nGenres:\n Adventure | Family | Fantasy \n\nCountry:\nUSA\n\nLanguage:\nEnglish \n\n\n\n\nFormat                                   : AVI\nFormat/Info                              : Audio Video Interleave\nFormat profile                           : OpenDML\nFormat settings                          : rec\nFile size                                : 1.85 GiB\nDuration                                 : 2h 10mn\nOverall bit rate                         : 2 027 Kbps\nWriting application                      : AVI-Mux GUI 1.17.8, Aug 30 2008  12:36:58\n\nVideo\nID                                       : 0\nFormat                                   : MPEG-4 Visual\nFormat profile                           : Advanced Simple@L5\nFormat settings, BVOP                    : 2\nFormat settings, QPel                    : No\nFormat settings, GMC                     : No warppoints\nFormat settings, Matrix                  : Default (H.263)\nMuxing mode                              : Packed bitstream\nCodec ID                                 : XVID\nCodec ID/Hint                            : XviD\nDuration                                 : 2h 10mn\nBit rate                                 : 1 574 Kbps\nWidth                                    : 720 pixels\nHeight                                   : 304 pixels\nDisplay aspect ratio                     : 2.35:1\nFrame rate                               : 23.976 fps\nColor space                              : YUV\nChroma subsampling                       : 4:2:0\nBit depth                                : 8 bits\nScan type                                : Progressive\nCompression mode                         : Lossy\nBits/(Pixel*Frame)                       : 0.300\nStream size                              : 1.43 GiB (78%)\nWriting library                          : XviD 63\n\nAudio\nID                                       : 1\nFormat                                   : AC-3\nFormat/Info                              : Audio Coding 3\nMode extension                           : CM (complete main)\nFormat settings, Endianness              : Big\nCodec ID                                 : 2000\nDuration                                 : 2h 10mn\nBit rate mode                            : Constant\nBit rate                                 : 448 Kbps\nChannel(s)                               : 6 channels\nChannel positions                        : Front: L C R, Side: L R, LFE\nSampling rate                            : 48.0 KHz\nBit depth                                : 16 bits\nCompression mode                         : Lossy\nStream size                              : 418 MiB (22%)\nAlignment                                : Aligned on interleaves\nInterleave, duration                     : 64 ms (1.53 video frames)\nInterleave, preload duration             : 192 ms\nTitle                                    : oz.the.great.and.powerful.2013.720p.bluray.x264-sparks\n\n\n\n\nscreens\n\n\n\n    &lt;a href=&quot;\thttp://addpix.net/viewer.php?file=36521677117172613708.jpg&quot; rel=&quot;nofollow&quot; target=&quot;_NEW&quot;&gt;\thttp://addpix.net/viewer.php?file=36521677117172613708.jpg&lt;/a&gt;\n    &lt;a href=&quot;\thttp://addpix.net/viewer.php?file=25579312876777181812.jpg&quot; rel=&quot;nofollow&quot; target=&quot;_NEW&quot;&gt;\thttp://addpix.net/viewer.php?file=25579312876777181812.jpg&lt;/a&gt;\n    &lt;a href=&quot;\thttp://addpix.net/viewer.php?file=93568865245250461503.jpg&quot; rel=&quot;nofollow&quot; target=&quot;_NEW&quot;&gt;\thttp://addpix.net/viewer.php?file=93568865245250461503.jpg&lt;/a&gt;\n    &lt;a href=&quot;\thttp://addpix.net/viewer.php?file=79337220764762747389.jpg&quot; rel=&quot;nofollow&quot; target=&quot;_NEW&quot;&gt;\thttp://addpix.net/viewer.php?file=79337220764762747389.jpg&lt;/a&gt;\n    &lt;a href=&quot;\thttp://addpix.net/viewer.php?file=98927801627719975890.jpg&quot; rel=&quot;nofollow&quot; target=&quot;_NEW&quot;&gt;\thttp://addpix.net/viewer.php?file=98927801627719975890.jpg&lt;/a&gt;\n    &lt;a href=&quot;\thttp://addpix.net/viewer.php?file=08924319603898217811.jpg&quot; rel=&quot;nofollow&quot; target=&quot;_NEW&quot;&gt;\thttp://addpix.net/viewer.php?file=08924319603898217811.jpg&lt;/a&gt;\n\n\n","torrent":{"xt":"urn:btih:7681f99859959a5e4c1c64543ad2218f7f470180","amp;dn":"Oz.the.Great.and.Powerful.2013.480p.BRRip.XviD.AC3-PTpOWeR","amp;tr":["udp%3A%2F%2Ftracker.openbittorrent.com%3A80","udp%3A%2F%2Fopen.demonii.com%3A1337","udp%3A%2F%2Ftracker.coppersurfer.tk%3A6969","udp%3A%2F%2Fexodus.desync.com%3A6969"],"infoHash":"7681f99859959a5e4c1c64543ad2218f7f470180","infoHashBuffer":{"type":"Buffer","data":[118,129,249,152,89,149,154,94,76,28,100,84,58,210,33,143,127,71,1,128]},"announce":[],"urlList":[]}}